<mxfile host="app.diagrams.net" modified="2024-06-10T15:04:13.692Z" agent="Mozilla/5.0 (Windows NT 10.0; Win64; x64) AppleWebKit/537.36 (KHTML, like Gecko) Chrome/125.0.0.0 Safari/537.36" version="24.5.2" etag="lxflU3cSng69_8XNFRUM" type="github">
  <diagram name="Page-1" id="LdsIDwJEYmDBAL7Ejigc">
    <mxGraphModel>
      <root>
        <mxCell id="0" />
        <mxCell id="1" parent="0" />
      </root>
    </mxGraphModel>
  </diagram>
</mxfile>
